{
DisplayStrings = (
e,
k
);
copyright = "\U00A92013 Ben Dunkle. All rights reserved.";
date = "2013-09-21 13:59:26 +0000";
designer = "Ben Dunkle";
designerURL = bendunkle.com;
familyName = "chubbies";
featurePrefixes = (
{
automatic = 1;
code = "languagesystem DFLT dflt;\012languagesystem latn dflt;\012";
name = Languagesystems;
}
);
fontMaster = (
{
ascender = 2048;
capHeight = 2048;
descender = "-256";
id = "D2F4DDDF-B441-4F85-9E4F-6DBCE838F50A";
xHeight = 1024;
}
);
glyphs = (
{
glyphname = A;
lastChange = "2013-09-26 01:03:29 -0500";
layers = (
{
layerId = "D2F4DDDF-B441-4F85-9E4F-6DBCE838F50A";
name = Regular;
paths = (
{
closed = 1;
nodes = (
"1912 768 OFFCURVE",
"1404 384 OFFCURVE",
"1024 384 CURVE SMOOTH",
"644 384 OFFCURVE",
"136 760 OFFCURVE",
"136 1020 CURVE SMOOTH",
"136 1280 OFFCURVE",
"644 1664 OFFCURVE",
"1024 1664 CURVE SMOOTH",
"1404 1664 OFFCURVE",
"1912 1272 OFFCURVE",
"1912 1020 CURVE SMOOTH"
);
},
{
closed = 1;
nodes = (
"812 1408 OFFCURVE",
"640 1236 OFFCURVE",
"640 1024 CURVE SMOOTH",
"640 812 OFFCURVE",
"812 640 OFFCURVE",
"1024 640 CURVE SMOOTH",
"1236 640 OFFCURVE",
"1408 812 OFFCURVE",
"1408 1024 CURVE SMOOTH",
"1408 1236 OFFCURVE",
"1236 1408 OFFCURVE",
"1024 1408 CURVE SMOOTH"
);
},
{
closed = 1;
nodes = (
"1216 918 OFFCURVE",
"1131 832 OFFCURVE",
"1024 832 CURVE SMOOTH",
"918 832 OFFCURVE",
"832 918 OFFCURVE",
"832 1024 CURVE SMOOTH",
"832 1131 OFFCURVE",
"918 1216 OFFCURVE",
"1024 1216 CURVE SMOOTH",
"1131 1216 OFFCURVE",
"1216 1131 OFFCURVE",
"1216 1024 CURVE SMOOTH"
);
}
);
width = 2048;
}
);
unicode = 0041;
},
{
glyphname = B;
lastChange = "2013-09-26 01:01:48 -0500";
layers = (
{
layerId = "D2F4DDDF-B441-4F85-9E4F-6DBCE838F50A";
name = Regular;
paths = (
{
closed = 1;
nodes = (
"961 549 OFFCURVE",
"960 549 OFFCURVE",
"960 549 CURVE SMOOTH",
"854 550 OFFCURVE",
"768 636 OFFCURVE",
"769 742 CURVE SMOOTH",
"770 863 LINE SMOOTH",
"771 1044 OFFCURVE",
"818 1135 OFFCURVE",
"966 1163 CURVE SMOOTH",
"1047 1178 OFFCURVE",
"1131 1253 OFFCURVE",
"1163 1294 CURVE SMOOTH",
"1202 1343 OFFCURVE",
"1212 1395 OFFCURVE",
"1194 1449 CURVE SMOOTH",
"1174 1507 OFFCURVE",
"1125 1554 OFFCURVE",
"1068 1569 CURVE SMOOTH",
"926 1606 OFFCURVE",
"851 1517 OFFCURVE",
"787 1386 CURVE SMOOTH",
"740 1291 OFFCURVE",
"625 1252 OFFCURVE",
"530 1299 CURVE SMOOTH",
"435 1345 OFFCURVE",
"395 1460 OFFCURVE",
"442 1555 CURVE SMOOTH",
"587 1851 OFFCURVE",
"845 2024 OFFCURVE",
"1165 1941 CURVE SMOOTH",
"1346 1893 OFFCURVE",
"1496 1752 OFFCURVE",
"1557 1572 CURVE SMOOTH",
"1617 1395 OFFCURVE",
"1583 1208 OFFCURVE",
"1466 1057 CURVE SMOOTH",
"1384 954 OFFCURVE",
"1260 938 OFFCURVE",
"1149 878 CURVE SMOOTH",
"1149 878 OFFCURVE",
"1153 838 OFFCURVE",
"1153 740 CURVE SMOOTH",
"1153 634 OFFCURVE",
"1067 549 OFFCURVE",
"961 549 CURVE SMOOTH"
);
},
{
closed = 1;
nodes = (
"1177 85 OFFCURVE",
"1080 -14 OFFCURVE",
"958 -14 CURVE SMOOTH",
"838 -14 OFFCURVE",
"739 85 OFFCURVE",
"739 205 CURVE SMOOTH",
"739 327 OFFCURVE",
"838 424 OFFCURVE",
"958 424 CURVE SMOOTH",
"1080 424 OFFCURVE",
"1177 327 OFFCURVE",
"1177 205 CURVE SMOOTH"
);
}
);
width = 2048;
}
);
unicode = 0042;
},
{
glyphname = R;
lastChange = "2013-09-26 00:29:09 -0500";
layers = (
{
layerId = "D2F4DDDF-B441-4F85-9E4F-6DBCE838F50A";
name = Regular;
paths = (
{
closed = 1;
nodes = (
"842.981 299.923 LINE",
"303.359 145.254 LINE",
"260.258 139.1 LINE",
"229.472 140.498 OFFCURVE",
"198.983 151.961 OFFCURVE",
"175.472 175.472 CURVE SMOOTH",
"151.961 198.983 OFFCURVE",
"140.498 229.472 OFFCURVE",
"139.1 260.258 CURVE",
"145.254 303.359 LINE",
"299.923 842.981 LINE",
"1386.04 1929.1 LINE SMOOTH",
"1436.03 1979.09 OFFCURVE",
"1517.07 1979.09 OFFCURVE",
"1567.06 1929.1 CURVE SMOOTH",
"1929.1 1567.06 LINE SMOOTH",
"1979.09 1517.07 OFFCURVE",
"1979.09 1436.03 OFFCURVE",
"1929.1 1386.04 CURVE SMOOTH"
);
},
{
closed = 1;
nodes = (
"1226.98 1408 LINE",
"480.942 661.961 LINE",
"661.961 480.942 LINE",
"1408 1226.98 LINE"
);
}
);
width = 2048;
}
);
unicode = 0052;
},
{
glyphname = a;
lastChange = "2013-09-24 11:37:15 -0500";
layers = (
{
layerId = "D2F4DDDF-B441-4F85-9E4F-6DBCE838F50A";
name = Regular;
paths = (
{
closed = 1;
nodes = (
"1877 619 OFFCURVE",
"1805 512 OFFCURVE",
"1664 512 CURVE SMOOTH",
"800 512 LINE SMOOTH",
"658 512 OFFCURVE",
"595 617 OFFCURVE",
"544 768 CURVE SMOOTH",
"488 933 OFFCURVE",
"453 995 OFFCURVE",
"407 1152 CURVE SMOOTH",
"353 1338 OFFCURVE",
"522 1408 OFFCURVE",
"663 1408 CURVE SMOOTH",
"1808 1408 LINE SMOOTH",
"1949 1408 OFFCURVE",
"2087 1355 OFFCURVE",
"2040 1152 CURVE SMOOTH",
"1992 949 OFFCURVE",
"1963 918 OFFCURVE",
"1920 768 CURVE SMOOTH"
);
},
{
closed = 1;
nodes = (
"1024 86 OFFCURVE",
"938 0 OFFCURVE",
"832 0 CURVE SMOOTH",
"726 0 OFFCURVE",
"640 86 OFFCURVE",
"640 192 CURVE SMOOTH",
"640 298 OFFCURVE",
"726 384 OFFCURVE",
"832 384 CURVE SMOOTH",
"938 384 OFFCURVE",
"1024 298 OFFCURVE",
"1024 192 CURVE SMOOTH"
);
},
{
closed = 1;
nodes = (
"1792 86 OFFCURVE",
"1706 0 OFFCURVE",
"1600 0 CURVE SMOOTH",
"1494 0 OFFCURVE",
"1408 86 OFFCURVE",
"1408 192 CURVE SMOOTH",
"1408 298 OFFCURVE",
"1494 384 OFFCURVE",
"1600 384 CURVE SMOOTH",
"1706 384 OFFCURVE",
"1792 298 OFFCURVE",
"1792 192 CURVE SMOOTH"
);
},
{
closed = 1;
nodes = (
"853 1026 OFFCURVE",
"801 915 OFFCURVE",
"699 881 CURVE",
"598 848 OFFCURVE",
"489 903 OFFCURVE",
"456 1004 CURVE SMOOTH",
"298 1490 LINE SMOOTH",
"266 1587 OFFCURVE",
"318 1699 OFFCURVE",
"420 1733 CURVE",
"521 1765 OFFCURVE",
"630 1710 OFFCURVE",
"663 1610 CURVE SMOOTH",
"821 1123 LINE SMOOTH"
);
},
{
closed = 1;
nodes = (
"658 1489 OFFCURVE",
"572 1403 OFFCURVE",
"466 1403 CURVE SMOOTH",
"192 1403 LINE SMOOTH",
"90 1403 OFFCURVE",
"0 1487 OFFCURVE",
"0 1595 CURVE",
"0 1701 OFFCURVE",
"86 1787 OFFCURVE",
"192 1787 CURVE SMOOTH",
"466 1787 LINE SMOOTH",
"572 1787 OFFCURVE",
"658 1701 OFFCURVE",
"658 1595 CURVE SMOOTH"
);
}
);
width = 2048;
}
);
unicode = 0061;
},
{
glyphname = b;
lastChange = "2013-09-25 18:15:54 -0500";
layers = (
{
layerId = "D2F4DDDF-B441-4F85-9E4F-6DBCE838F50A";
name = Regular;
paths = (
{
closed = 1;
nodes = (
"466 385 OFFCURVE",
"64 985 OFFCURVE",
"239 1364 CURVE SMOOTH",
"368 1646 OFFCURVE",
"688 1750 OFFCURVE",
"1024 1523 CURVE",
"1359 1750 OFFCURVE",
"1679 1646 OFFCURVE",
"1809 1364 CURVE SMOOTH",
"1984 985 OFFCURVE",
"1582 385 OFFCURVE",
"1024 298 CURVE"
);
}
);
width = 2048;
}
);
unicode = 0062;
},
{
glyphname = c;
lastChange = "2013-09-24 00:10:26 -0500";
layers = (
{
layerId = "D2F4DDDF-B441-4F85-9E4F-6DBCE838F50A";
name = Regular;
paths = (
{
closed = 1;
nodes = (
"557 1753 OFFCURVE",
"274 1573 OFFCURVE",
"274 1159 CURVE SMOOTH",
"274 745 OFFCURVE",
"557 586 OFFCURVE",
"1024 586 CURVE SMOOTH",
"1490 586 OFFCURVE",
"1774 745 OFFCURVE",
"1774 1159 CURVE SMOOTH",
"1774 1573 OFFCURVE",
"1490 1753 OFFCURVE",
"1024 1753 CURVE SMOOTH"
);
},
{
closed = 1;
nodes = (
"1180 1285 OFFCURVE",
"847 867 OFFCURVE",
"847 867 CURVE",
"847 797 OFFCURVE",
"855 686 OFFCURVE",
"821 628 CURVE",
"821 425 OFFCURVE",
"623 441 OFFCURVE",
"680 368 CURVE SMOOTH",
"737 295 OFFCURVE",
"1011 313 OFFCURVE",
"1130 413 CURVE SMOOTH",
"1241 507 OFFCURVE",
"1303 666 OFFCURVE",
"1263 867 CURVE SMOOTH"
);
}
);
width = 2048;
}
);
unicode = 0063;
},
{
glyphname = d;
lastChange = "2013-09-24 00:18:55 -0500";
layers = (
{
layerId = "D2F4DDDF-B441-4F85-9E4F-6DBCE838F50A";
name = Regular;
paths = (
{
closed = 1;
nodes = (
"1920 517 OFFCURVE",
"1787 384 OFFCURVE",
"1621 384 CURVE SMOOTH",
"427 384 LINE SMOOTH",
"261 384 OFFCURVE",
"128 517 OFFCURVE",
"128 683 CURVE SMOOTH",
"128 1493 LINE SMOOTH",
"128 1659 OFFCURVE",
"261 1792 OFFCURVE",
"427 1792 CURVE SMOOTH",
"1621 1792 LINE SMOOTH",
"1787 1792 OFFCURVE",
"1920 1659 OFFCURVE",
"1920 1493 CURVE SMOOTH",
"1920 683 LINE SMOOTH"
);
},
{
closed = 1;
nodes = (
"1693 1356 LINE SMOOTH",
"1749 1393 OFFCURVE",
"1763 1471 OFFCURVE",
"1724 1527 CURVE SMOOTH",
"1686 1586 OFFCURVE",
"1609 1600 OFFCURVE",
"1554 1563 CURVE SMOOTH",
"1024 1210 LINE",
"494 1563 LINE SMOOTH",
"439 1600 OFFCURVE",
"362 1586 OFFCURVE",
"324 1527 CURVE SMOOTH",
"285 1471 OFFCURVE",
"299 1393 OFFCURVE",
"359 1356 CURVE SMOOTH",
"956 956 LINE SMOOTH",
"975 942 OFFCURVE",
"999 937 OFFCURVE",
"1024 937 CURVE SMOOTH",
"1049 937 OFFCURVE",
"1073 942 OFFCURVE",
"1092 956 CURVE SMOOTH"
);
}
);
width = 2048;
}
);
unicode = 0064;
},
{
glyphname = e;
lastChange = "2013-09-24 11:42:10 -0500";
layers = (
{
layerId = "D2F4DDDF-B441-4F85-9E4F-6DBCE838F50A";
name = Regular;
paths = (
{
closed = 1;
nodes = (
"1664 346 OFFCURVE",
"1564 256 OFFCURVE",
"1464 256 CURVE SMOOTH",
"1251 256 OFFCURVE",
"1024 506 OFFCURVE",
"1024 506 CURVE SMOOTH",
"1024 506 OFFCURVE",
"809 256 OFFCURVE",
"584 256 CURVE SMOOTH",
"484 256 OFFCURVE",
"384 346 OFFCURVE",
"384 456 CURVE SMOOTH",
"384 1592 LINE SMOOTH",
"384 1702 OFFCURVE",
"473 1792 OFFCURVE",
"584 1792 CURVE SMOOTH",
"1464 1792 LINE SMOOTH",
"1574 1792 OFFCURVE",
"1664 1702 OFFCURVE",
"1664 1592 CURVE SMOOTH",
"1664 456 LINE SMOOTH"
);
}
);
width = 2048;
}
);
unicode = 0065;
},
{
glyphname = f;
lastChange = "2013-09-24 11:47:00 -0500";
layers = (
{
layerId = "D2F4DDDF-B441-4F85-9E4F-6DBCE838F50A";
name = Regular;
paths = (
{
closed = 1;
nodes = (
"376 768 OFFCURVE",
"256 881 OFFCURVE",
"256 1024 CURVE",
"256 1165 OFFCURVE",
"371 1280 OFFCURVE",
"512 1280 CURVE SMOOTH",
"1536 1280 LINE SMOOTH",
"1672 1280 OFFCURVE",
"1792 1167 OFFCURVE",
"1792 1024 CURVE",
"1792 883 OFFCURVE",
"1677 768 OFFCURVE",
"1536 768 CURVE SMOOTH",
"512 768 LINE SMOOTH"
);
},
{
closed = 1;
nodes = (
"1307 -383 OFFCURVE",
"1307 -383 OFFCURVE",
"1307 -383 CURVE",
"1307 -383 OFFCURVE",
"1307 -383 OFFCURVE",
"1307 -383 CURVE SMOOTH",
"1307 -383 LINE SMOOTH",
"1307 -383 OFFCURVE",
"1307 -383 OFFCURVE",
"1307 -383 CURVE",
"1307 -383 OFFCURVE",
"1307 -383 OFFCURVE",
"1307 -383 CURVE SMOOTH",
"1307 -383 LINE SMOOTH"
);
},
{
closed = 1;
nodes = (
"768 1672 OFFCURVE",
"881 1792 OFFCURVE",
"1024 1792 CURVE",
"1165 1792 OFFCURVE",
"1280 1677 OFFCURVE",
"1280 1536 CURVE SMOOTH",
"1280 512 LINE SMOOTH",
"1280 376 OFFCURVE",
"1167 256 OFFCURVE",
"1024 256 CURVE",
"883 256 OFFCURVE",
"768 371 OFFCURVE",
"768 512 CURVE SMOOTH",
"768 1536 LINE SMOOTH"
);
}
);
width = 2048;
}
);
unicode = 0066;
},
{
glyphname = g;
lastChange = "2013-09-24 11:49:46 -0500";
layers = (
{
layerId = "D2F4DDDF-B441-4F85-9E4F-6DBCE838F50A";
name = Regular;
paths = (
{
closed = 1;
nodes = (
"1792 476 OFFCURVE",
"1700 384 OFFCURVE",
"1587 384 CURVE SMOOTH",
"461 384 LINE SMOOTH",
"348 384 OFFCURVE",
"256 476 OFFCURVE",
"256 588 CURVE SMOOTH",
"256 1203 LINE SMOOTH",
"256 1315 OFFCURVE",
"348 1408 OFFCURVE",
"461 1408 CURVE SMOOTH",
"1587 1408 LINE SMOOTH",
"1700 1408 OFFCURVE",
"1792 1315 OFFCURVE",
"1792 1203 CURVE SMOOTH",
"1792 588 LINE SMOOTH"
);
},
{
closed = 1;
nodes = (
"847 1280 OFFCURVE",
"704 1136 OFFCURVE",
"704 959 CURVE SMOOTH",
"704 782 OFFCURVE",
"847 639 OFFCURVE",
"1024 639 CURVE SMOOTH",
"1201 639 OFFCURVE",
"1344 782 OFFCURVE",
"1344 959 CURVE SMOOTH",
"1344 1136 OFFCURVE",
"1201 1280 OFFCURVE",
"1024 1280 CURVE SMOOTH"
);
},
{
closed = 1;
nodes = (
"652 1508 LINE SMOOTH",
"693 1598 OFFCURVE",
"802 1664 OFFCURVE",
"919 1664 CURVE",
"1129 1664 LINE",
"1246 1664 OFFCURVE",
"1364 1601 OFFCURVE",
"1396 1508 CURVE SMOOTH",
"1431 1408 LINE",
"617 1408 LINE"
);
}
);
width = 2048;
}
);
unicode = 0067;
},
{
glyphname = h;
lastChange = "2013-09-24 11:56:21 -0500";
layers = (
{
layerId = "D2F4DDDF-B441-4F85-9E4F-6DBCE838F50A";
name = Regular;
paths = (
{
closed = 1;
nodes = (
"1408 473 OFFCURVE",
"1319 384 OFFCURVE",
"1209 384 CURVE SMOOTH",
"583 384 LINE SMOOTH",
"474 384 OFFCURVE",
"384 473 OFFCURVE",
"384 583 CURVE SMOOTH",
"384 953 LINE SMOOTH",
"384 1063 OFFCURVE",
"474 1152 OFFCURVE",
"583 1152 CURVE SMOOTH",
"1209 1152 LINE SMOOTH",
"1319 1152 OFFCURVE",
"1408 1063 OFFCURVE",
"1408 953 CURVE SMOOTH",
"1408 583 LINE SMOOTH"
);
},
{
closed = 1;
nodes = (
"1536 579 LINE",
"1536 579 OFFCURVE",
"1721 431 OFFCURVE",
"1783 399 CURVE SMOOTH",
"1844 366 OFFCURVE",
"1920 405 OFFCURVE",
"1920 498 CURVE SMOOTH",
"1920 590 OFFCURVE",
"1920 968 OFFCURVE",
"1920 1056 CURVE SMOOTH",
"1920 1144 OFFCURVE",
"1837 1170 OFFCURVE",
"1790 1147 CURVE SMOOTH",
"1744 1123 OFFCURVE",
"1536 963 OFFCURVE",
"1536 963 CURVE"
);
},
{
closed = 1;
nodes = (
"931 1366 OFFCURVE",
"844 1280 OFFCURVE",
"739 1280 CURVE SMOOTH",
"320 1280 LINE SMOOTH",
"221 1280 OFFCURVE",
"128 1363 OFFCURVE",
"128 1472 CURVE",
"128 1579 OFFCURVE",
"215 1664 OFFCURVE",
"320 1664 CURVE SMOOTH",
"739 1664 LINE SMOOTH",
"844 1664 OFFCURVE",
"931 1579 OFFCURVE",
"931 1472 CURVE SMOOTH"
);
}
);
width = 2048;
}
);
unicode = 0068;
},
{
glyphname = i;
lastChange = "2013-09-25 19:23:24 -0500";
layers = (
{
layerId = "D2F4DDDF-B441-4F85-9E4F-6DBCE838F50A";
name = Regular;
paths = (
{
closed = 1;
nodes = (
"606 1048 OFFCURVE",
"463 1952 OFFCURVE",
"1024 1952 CURVE SMOOTH",
"1585 1952 OFFCURVE",
"1442 1048 OFFCURVE",
"1024 1048 CURVE SMOOTH"
);
},
{
closed = 1;
nodes = (
"1024 713 LINE SMOOTH",
"593 1191 LINE",
"352 1092 OFFCURVE",
"192 901 OFFCURVE",
"192 630 CURVE SMOOTH",
"192 218 OFFCURVE",
"564 97 OFFCURVE",
"1024 97 CURVE SMOOTH",
"1484 97 OFFCURVE",
"1856 218 OFFCURVE",
"1856 630 CURVE SMOOTH",
"1856 901 OFFCURVE",
"1696 1092 OFFCURVE",
"1455 1191 CURVE"
);
}
);
width = 2048;
}
);
unicode = 0069;
},
{
glyphname = j;
lastChange = "2013-09-24 13:46:12 -0500";
layers = (
{
layerId = "D2F4DDDF-B441-4F85-9E4F-6DBCE838F50A";
name = Regular;
paths = (
{
closed = 1;
nodes = (
"283 790 LINE SMOOTH",
"138 667 OFFCURVE",
"128 435 OFFCURVE",
"283 280 CURVE",
"436 128 OFFCURVE",
"668 133 OFFCURVE",
"793 280 CURVE SMOOTH",
"1401.27 1032.97 LINE SMOOTH",
"1461.68 1104.32 OFFCURVE",
"1429.96 1237.23 OFFCURVE",
"1333.6 1333.6 CURVE",
"1237.23 1429.96 OFFCURVE",
"1104.32 1461.68 OFFCURVE",
"1032.97 1401.27 CURVE SMOOTH"
);
},
{
closed = 1;
nodes = (
"715 583 OFFCURVE",
"715 479 OFFCURVE",
"651 414 CURVE SMOOTH",
"586 350 OFFCURVE",
"482 350 OFFCURVE",
"417 414 CURVE SMOOTH",
"353 479 OFFCURVE",
"353 583 OFFCURVE",
"417 648 CURVE SMOOTH",
"482 712 OFFCURVE",
"586 712 OFFCURVE",
"651 648 CURVE SMOOTH"
);
},
{
closed = 1;
nodes = (
"1523.07 2088.28 OFFCURVE",
"1287.93 2050.5 OFFCURVE",
"1127.99 1890.57 CURVE SMOOTH",
"917.414 1679.99 OFFCURVE",
"917.408 1338.57 OFFCURVE",
"1127.99 1127.99 CURVE SMOOTH",
"1338.57 917.408 OFFCURVE",
"1679.99 917.414 OFFCURVE",
"1890.57 1127.99 CURVE SMOOTH",
"2050.5 1287.93 OFFCURVE",
"2088.28 1523.07 OFFCURVE",
"2005.27 1719.31 CURVE",
"1702 1416 LINE",
"1416 1702 LINE",
"1719.31 2005.27 LINE"
);
}
);
width = 2048;
}
);
unicode = 006A;
},
{
glyphname = k;
lastChange = "2013-09-26 01:18:21 -0500";
layers = (
{
layerId = "D2F4DDDF-B441-4F85-9E4F-6DBCE838F50A";
name = Regular;
paths = (
{
closed = 1;
nodes = (
"1161 1345 OFFCURVE",
"1161 1112 OFFCURVE",
"1017 968 CURVE SMOOTH",
"873 824 OFFCURVE",
"640 824 OFFCURVE",
"496 968 CURVE SMOOTH",
"352 1112 OFFCURVE",
"352 1345 OFFCURVE",
"496 1489 CURVE SMOOTH",
"640 1633 OFFCURVE",
"873 1633 OFFCURVE",
"1017 1489 CURVE SMOOTH"
);
},
{
closed = 1;
nodes = (
"956 1920 OFFCURVE",
"557 1920 OFFCURVE",
"311 1674 CURVE SMOOTH",
"64 1428 OFFCURVE",
"64 1029 OFFCURVE",
"311 782 CURVE SMOOTH",
"487 606 OFFCURVE",
"742 556 OFFCURVE",
"963 633 CURVE",
"1352 175 LINE SMOOTH",
"1484 21 OFFCURVE",
"1707 0 OFFCURVE",
"1846 139 CURVE SMOOTH",
"1984 277 OFFCURVE",
"1964 501 OFFCURVE",
"1809 633 CURVE SMOOTH",
"1352 1021 LINE",
"1428 1242 OFFCURVE",
"1379 1498 OFFCURVE",
"1202 1674 CURVE SMOOTH"
);
}
);
width = 2048;
}
);
unicode = 006B;
},
{
glyphname = l;
lastChange = "2013-09-25 18:20:32 -0500";
layers = (
{
layerId = "D2F4DDDF-B441-4F85-9E4F-6DBCE838F50A";
name = Regular;
paths = (
{
closed = 1;
nodes = (
"1792 185.308 OFFCURVE",
"1734.69 128 OFFCURVE",
"1664 128 CURVE SMOOTH",
"512 128 LINE SMOOTH",
"441 128 OFFCURVE",
"384 185 OFFCURVE",
"384 256 CURVE SMOOTH",
"384 1664 LINE SMOOTH",
"384 1735 OFFCURVE",
"441 1792 OFFCURVE",
"512 1792 CURVE SMOOTH",
"1280 1792 LINE",
"1792 1280 LINE",
"1792 256 LINE SMOOTH"
);
},
{
closed = 1;
nodes = (
"1152 1152 LINE",
"1632 1152 LINE",
"1152 1632 LINE"
);
}
);
width = 2048;
}
);
unicode = 006C;
},
{
glyphname = m;
lastChange = "2013-09-25 19:35:18 -0500";
layers = (
{
layerId = "D2F4DDDF-B441-4F85-9E4F-6DBCE838F50A";
name = Regular;
paths = (
{
closed = 1;
nodes = (
"1939 698 OFFCURVE",
"1816 575 OFFCURVE",
"1663 575 CURVE SMOOTH",
"1511 575 OFFCURVE",
"1388 698 OFFCURVE",
"1388 850 CURVE SMOOTH",
"1388 1003 OFFCURVE",
"1511 1126 OFFCURVE",
"1663 1126 CURVE SMOOTH",
"1816 1126 OFFCURVE",
"1939 1003 OFFCURVE",
"1939 850 CURVE SMOOTH"
);
},
{
closed = 1;
nodes = (
"1762 762 OFFCURVE",
"1447 447 OFFCURVE",
"1058 447 CURVE SMOOTH",
"669 447 OFFCURVE",
"354 762 OFFCURVE",
"354 1151 CURVE SMOOTH",
"354 1540 OFFCURVE",
"669 1855 OFFCURVE",
"1058 1855 CURVE SMOOTH",
"1447 1855 OFFCURVE",
"1762 1540 OFFCURVE",
"1762 1151 CURVE SMOOTH"
);
},
{
closed = 1;
nodes = (
"818 714 OFFCURVE",
"637 533 OFFCURVE",
"414 533 CURVE SMOOTH",
"191 533 OFFCURVE",
"9 719 OFFCURVE",
"9 937 CURVE SMOOTH",
"9 1160 OFFCURVE",
"191 1341 OFFCURVE",
"414 1341 CURVE SMOOTH",
"637 1341 OFFCURVE",
"818 1160 OFFCURVE",
"818 937 CURVE SMOOTH"
);
}
);
width = 2048;
}
);
unicode = 006D;
},
{
glyphname = n;
lastChange = "2013-09-25 18:24:38 -0500";
layers = (
{
layerId = "D2F4DDDF-B441-4F85-9E4F-6DBCE838F50A";
name = Regular;
paths = (
{
closed = 1;
nodes = (
"1920 1465.31 OFFCURVE",
"1862.69 1408 OFFCURVE",
"1792 1408 CURVE SMOOTH",
"256 1408 LINE SMOOTH",
"185.308 1408 OFFCURVE",
"128 1465.31 OFFCURVE",
"128 1536 CURVE SMOOTH",
"128 1664 LINE SMOOTH",
"128 1734.69 OFFCURVE",
"185.308 1792 OFFCURVE",
"256 1792 CURVE SMOOTH",
"1792 1792 LINE SMOOTH",
"1862.69 1792 OFFCURVE",
"1920 1734.69 OFFCURVE",
"1920 1664 CURVE SMOOTH",
"1920 1536 LINE SMOOTH"
);
},
{
closed = 1;
nodes = (
"1536 1721.31 OFFCURVE",
"1350.69 1664 OFFCURVE",
"1280 1664 CURVE SMOOTH",
"768 1664 LINE SMOOTH",
"697.308 1664 OFFCURVE",
"512 1721.31 OFFCURVE",
"512 1792 CURVE",
"512 1792 OFFCURVE",
"697.308 2048 OFFCURVE",
"768 2048 CURVE SMOOTH",
"1280 2048 LINE SMOOTH",
"1350.69 2048 OFFCURVE",
"1536 1792 OFFCURVE",
"1536 1792 CURVE"
);
},
{
closed = 1;
nodes = (
"1675.35 221.955 OFFCURVE",
"1549.38 128 OFFCURVE",
"1408 128 CURVE SMOOTH",
"640 128 LINE SMOOTH",
"498.615 128 OFFCURVE",
"372.654 221.955 OFFCURVE",
"358.092 342.547 CURVE SMOOTH",
"266.041 1280.82 LINE",
"1781.96 1280.82 LINE",
"1689.91 342.547 LINE SMOOTH"
);
},
{
closed = 1;
nodes = (
"768 963 OFFCURVE",
"713 1024 OFFCURVE",
"640 1024 CURVE SMOOTH",
"569 1024 OFFCURVE",
"512 967 OFFCURVE",
"512 896 CURVE SMOOTH",
"512 512 LINE SMOOTH",
"512 445 OFFCURVE",
"567 384 OFFCURVE",
"640 384 CURVE",
"710.692 384 OFFCURVE",
"768 441.308 OFFCURVE",
"768 512 CURVE SMOOTH",
"768 896 LINE SMOOTH"
);
},
{
closed = 1;
nodes = (
"1152 963 OFFCURVE",
"1097 1024 OFFCURVE",
"1024 1024 CURVE SMOOTH",
"953 1024 OFFCURVE",
"896 967 OFFCURVE",
"896 896 CURVE SMOOTH",
"896 512 LINE SMOOTH",
"896 445 OFFCURVE",
"951 384 OFFCURVE",
"1024 384 CURVE",
"1094.69 384 OFFCURVE",
"1152 441.308 OFFCURVE",
"1152 512 CURVE SMOOTH",
"1152 896 LINE SMOOTH"
);
},
{
closed = 1;
nodes = (
"1536 963 OFFCURVE",
"1481 1024 OFFCURVE",
"1408 1024 CURVE SMOOTH",
"1337 1024 OFFCURVE",
"1280 967 OFFCURVE",
"1280 896 CURVE SMOOTH",
"1280 512 LINE SMOOTH",
"1280 445 OFFCURVE",
"1335 384 OFFCURVE",
"1408 384 CURVE",
"1478.69 384 OFFCURVE",
"1536 441.308 OFFCURVE",
"1536 512 CURVE SMOOTH",
"1536 896 LINE SMOOTH"
);
}
);
width = 2048;
}
);
unicode = 006E;
},
{
glyphname = o;
lastChange = "2013-09-25 18:32:45 -0500";
layers = (
{
layerId = "D2F4DDDF-B441-4F85-9E4F-6DBCE838F50A";
name = Regular;
paths = (
{
closed = 1;
nodes = (
"1920 512 LINE SMOOTH",
"1920 370.617 OFFCURVE",
"1805.38 256 OFFCURVE",
"1664 256 CURVE SMOOTH",
"256 256 LINE SMOOTH",
"114.617 256 OFFCURVE",
"0 370.617 OFFCURVE",
"0 512 CURVE SMOOTH",
"0 1586.28 LINE SMOOTH",
"0 1727.67 OFFCURVE",
"114.617 1842.28 OFFCURVE",
"256 1842.28 CURVE SMOOTH",
"640 1842.28 LINE SMOOTH",
"781.383 1842.28 OFFCURVE",
"896 1727.67 OFFCURVE",
"896 1586.28 CURVE SMOOTH",
"896 1536 LINE",
"1664 1536 LINE SMOOTH",
"1805.38 1536 OFFCURVE",
"1920 1421.38 OFFCURVE",
"1920 1280 CURVE SMOOTH"
);
},
{
closed = 1;
nodes = (
"384 1280 LINE SMOOTH",
"313.305 1280 OFFCURVE",
"256 1222.7 OFFCURVE",
"256 1152 CURVE SMOOTH",
"256 640 LINE SMOOTH",
"256 569.312 OFFCURVE",
"313.305 512 OFFCURVE",
"384 512 CURVE SMOOTH",
"454.695 512 OFFCURVE",
"512 569.312 OFFCURVE",
"512 640 CURVE SMOOTH",
"512 1024 LINE",
"1536 1024 LINE SMOOTH",
"1606.7 1024 OFFCURVE",
"1664 1081.31 OFFCURVE",
"1664 1152 CURVE SMOOTH",
"1664 1222.7 OFFCURVE",
"1606.7 1280 OFFCURVE",
"1536 1280 CURVE SMOOTH"
);
}
);
width = 2048;
}
);
unicode = 006F;
},
{
glyphname = p;
lastChange = "2013-09-25 19:02:17 -0500";
layers = (
{
layerId = "D2F4DDDF-B441-4F85-9E4F-6DBCE838F50A";
name = Regular;
paths = (
{
closed = 1;
nodes = (
"697 1441 OFFCURVE",
"811 2020 OFFCURVE",
"1024 2020 CURVE SMOOTH",
"1238 2020 OFFCURVE",
"1353 1441 OFFCURVE",
"1353 1441 CURVE SMOOTH",
"1353 1441 OFFCURVE",
"1939 1512 OFFCURVE",
"2005 1308 CURVE SMOOTH",
"2071 1105 OFFCURVE",
"1556 816 OFFCURVE",
"1556 816 CURVE SMOOTH",
"1556 816 OFFCURVE",
"1805 281 OFFCURVE",
"1632 155 CURVE SMOOTH",
"1459 30 OFFCURVE",
"1025 431 OFFCURVE",
"1025 431 CURVE SMOOTH",
"1025 431 OFFCURVE",
"592 29 OFFCURVE",
"419 154 CURVE SMOOTH",
"247 280 OFFCURVE",
"494 816 OFFCURVE",
"494 816 CURVE SMOOTH",
"494 816 OFFCURVE",
"-23 1104 OFFCURVE",
"44 1307 CURVE SMOOTH",
"110 1510 OFFCURVE",
"697 1441 OFFCURVE",
"697 1441 CURVE SMOOTH"
);
}
);
width = 2048;
}
);
unicode = 0070;
},
{
glyphname = q;
lastChange = "2013-09-25 19:26:23 -0500";
layers = (
{
layerId = "D2F4DDDF-B441-4F85-9E4F-6DBCE838F50A";
name = Regular;
paths = (
{
closed = 1;
nodes = (
"896 768 LINE",
"1152 768 LINE",
"1152 384 LINE",
"896 384 LINE"
);
},
{
closed = 1;
nodes = (
"1165 1280 OFFCURVE",
"1280 1165 OFFCURVE",
"1280 1024 CURVE",
"768 1024 LINE",
"768 1165 OFFCURVE",
"883 1280 OFFCURVE",
"1024 1280 CURVE SMOOTH"
);
},
{
closed = 1;
nodes = (
"883 1280 OFFCURVE",
"768 1165 OFFCURVE",
"768 1024 CURVE",
"1280 1024 LINE",
"1280 1165 OFFCURVE",
"1165 1280 OFFCURVE",
"1024 1280 CURVE SMOOTH"
);
},
{
closed = 1;
nodes = (
"768 1165 OFFCURVE",
"883 1280 OFFCURVE",
"1024 1280 CURVE SMOOTH",
"1165 1280 OFFCURVE",
"1280 1165 OFFCURVE",
"1280 1024 CURVE",
"768 1024 LINE"
);
},
{
closed = 1;
nodes = (
"1609 128 OFFCURVE",
"1659 177 OFFCURVE",
"1664 238 CURVE",
"1664 258 LINE",
"1664 896 LINE",
"1728 896 LINE SMOOTH",
"1781 896 OFFCURVE",
"1829 917 OFFCURVE",
"1864 952 CURVE SMOOTH",
"1899 987 OFFCURVE",
"1920 1035 OFFCURVE",
"1920 1088 CURVE SMOOTH",
"1920 1141 OFFCURVE",
"1899 1189 OFFCURVE",
"1864 1224 CURVE",
"1174 1796 LINE",
"1131 1832 LINE SMOOTH",
"1100 1851 OFFCURVE",
"1063 1862 OFFCURVE",
"1024 1862 CURVE SMOOTH",
"985 1862 OFFCURVE",
"948 1851 OFFCURVE",
"917 1832 CURVE",
"874 1796 LINE",
"184 1224 LINE",
"149 1189 OFFCURVE",
"128 1141 OFFCURVE",
"128 1088 CURVE SMOOTH",
"128 1035 OFFCURVE",
"149 987 OFFCURVE",
"184 952 CURVE SMOOTH",
"219 917 OFFCURVE",
"267 896 OFFCURVE",
"320 896 CURVE SMOOTH",
"384 896 LINE",
"384 248 LINE",
"384 182 OFFCURVE",
"438 128 OFFCURVE",
"504 128 CURVE",
"1546 128 LINE"
);
}
);
width = 2048;
}
);
unicode = 0071;
},
{
glyphname = r;
lastChange = "2013-09-25 19:30:31 -0500";
layers = (
{
layerId = "D2F4DDDF-B441-4F85-9E4F-6DBCE838F50A";
name = Regular;
paths = (
{
closed = 1;
nodes = (
"59 59 LINE",
"209 842 LINE",
"1281 1914 LINE SMOOTH",
"1331 1964 OFFCURVE",
"1396 1989 OFFCURVE",
"1462 1989 CURVE SMOOTH",
"1527 1989 OFFCURVE",
"1593 1964 OFFCURVE",
"1643 1914 CURVE SMOOTH",
"1778 1778 LINE",
"1914 1643 LINE SMOOTH",
"1964 1593 OFFCURVE",
"1989 1527 OFFCURVE",
"1989 1462 CURVE SMOOTH",
"1989 1396 OFFCURVE",
"1964 1331 OFFCURVE",
"1914 1281 CURVE SMOOTH",
"842 209 LINE"
);
},
{
closed = 1;
nodes = (
"1190 1462 LINE",
"376 647 LINE",
"647 376 LINE",
"1462 1190 LINE"
);
}
);
width = 2048;
}
);
unicode = 0072;
},
{
glyphname = s;
lastChange = "2013-09-25 19:42:05 -0500";
layers = (
{
layerId = "D2F4DDDF-B441-4F85-9E4F-6DBCE838F50A";
name = Regular;
paths = (
{
closed = 1;
nodes = (
"1909 1124 OFFCURVE",
"1852 1166 OFFCURVE",
"1784 1243 CURVE",
"1231 1823 LINE SMOOTH",
"1131 1923 OFFCURVE",
"969 1923 OFFCURVE",
"869 1823 CURVE SMOOTH",
"769 1723 OFFCURVE",
"769 1561 OFFCURVE",
"869 1461 CURVE SMOOTH",
"1041 1280 LINE",
"384 1280 LINE SMOOTH",
"243 1280 OFFCURVE",
"128 1165 OFFCURVE",
"128 1024 CURVE SMOOTH",
"128 883 OFFCURVE",
"243 768 OFFCURVE",
"384 768 CURVE SMOOTH",
"1041 768 LINE",
"869 587 LINE SMOOTH",
"769 487 OFFCURVE",
"769 325 OFFCURVE",
"869 225 CURVE SMOOTH",
"969 125 OFFCURVE",
"1131 125 OFFCURVE",
"1231 225 CURVE SMOOTH",
"1784 805 LINE",
"1853 879 OFFCURVE",
"1909 931 OFFCURVE",
"1909 1024 CURVE SMOOTH"
);
}
);
width = 2048;
}
);
unicode = 0073;
},
{
glyphname = t;
lastChange = "2013-09-25 19:55:27 -0500";
layers = (
{
layerId = "D2F4DDDF-B441-4F85-9E4F-6DBCE838F50A";
name = Regular;
paths = (
{
closed = 1;
nodes = (
"1655 2038 OFFCURVE",
"1290 2038 OFFCURVE",
"1065 1813 CURVE SMOOTH",
"1020 1767 LINE SMOOTH",
"945 1692 OFFCURVE",
"945 1571 OFFCURVE",
"1020 1496 CURVE SMOOTH",
"1095 1421 OFFCURVE",
"1216 1421 OFFCURVE",
"1291 1496 CURVE SMOOTH",
"1336 1541 LINE SMOOTH",
"1411 1616 OFFCURVE",
"1533 1616 OFFCURVE",
"1608 1541 CURVE SMOOTH",
"1683 1466 OFFCURVE",
"1683 1345 OFFCURVE",
"1608 1270 CURVE SMOOTH",
"1291 953 LINE SMOOTH",
"1216 878 OFFCURVE",
"1095 878 OFFCURVE",
"1020 953 CURVE SMOOTH",
"945 1028 OFFCURVE",
"823 1028 OFFCURVE",
"748 953 CURVE SMOOTH",
"657 860 OFFCURVE",
"680 741 OFFCURVE",
"748 681 CURVE SMOOTH",
"901 546 OFFCURVE",
"1268 387 OFFCURVE",
"1563 681 CURVE SMOOTH",
"1880 998 LINE SMOOTH",
"2104 1223 OFFCURVE",
"2104 1588 OFFCURVE",
"1880 1813 CURVE SMOOTH"
);
},
{
closed = 1;
nodes = (
"391 7 OFFCURVE",
"758 3 OFFCURVE",
"984 229 CURVE",
"1059 304 OFFCURVE",
"1059 425 OFFCURVE",
"984 500 CURVE SMOOTH",
"912 572 OFFCURVE",
"788 576 OFFCURVE",
"712 500 CURVE",
"637 425 OFFCURVE",
"515 425 OFFCURVE",
"440 500 CURVE SMOOTH",
"365 575 OFFCURVE",
"365 697 OFFCURVE",
"440 772 CURVE SMOOTH",
"531 862 OFFCURVE",
"621 953 OFFCURVE",
"712 1043 CURVE SMOOTH",
"787 1118 OFFCURVE",
"909 1118 OFFCURVE",
"984 1043 CURVE SMOOTH",
"1059 968 OFFCURVE",
"1180 968 OFFCURVE",
"1255 1043 CURVE SMOOTH",
"1348 1136 OFFCURVE",
"1309 1245 OFFCURVE",
"1255 1315 CURVE",
"994 1541 OFFCURVE",
"660 1534 OFFCURVE",
"440 1315 CURVE SMOOTH",
"169 1043 LINE SMOOTH",
"-56 818 OFFCURVE",
"-56 454 OFFCURVE",
"169 229 CURVE SMOOTH"
);
}
);
width = 2048;
}
);
unicode = 0074;
},
{
glyphname = u;
lastChange = "2013-09-25 20:01:47 -0500";
layers = (
{
layerId = "D2F4DDDF-B441-4F85-9E4F-6DBCE838F50A";
name = Regular;
paths = (
{
closed = 1;
nodes = (
"1739 1611 OFFCURVE",
"1690 1562 OFFCURVE",
"1627 1499 CURVE",
"1486 1677 OFFCURVE",
"1269 1792 OFFCURVE",
"1024 1792 CURVE SMOOTH",
"600 1792 OFFCURVE",
"256 1448 OFFCURVE",
"256 1024 CURVE SMOOTH",
"256 600 OFFCURVE",
"600 256 OFFCURVE",
"1024 256 CURVE SMOOTH",
"1140 256 OFFCURVE",
"1250 282 OFFCURVE",
"1348 329 CURVE SMOOTH",
"1381 344 OFFCURVE",
"1412 362 OFFCURVE",
"1440 386 CURVE",
"1477 423 OFFCURVE",
"1502 468 OFFCURVE",
"1502 525 CURVE SMOOTH",
"1502 636 OFFCURVE",
"1428 726 OFFCURVE",
"1306 726 CURVE SMOOTH",
"1266 726 OFFCURVE",
"1199 681 OFFCURVE",
"1168 669 CURVE SMOOTH",
"1124 650 OFFCURVE",
"1075 640 OFFCURVE",
"1024 640 CURVE SMOOTH",
"812 640 OFFCURVE",
"640 812 OFFCURVE",
"640 1024 CURVE SMOOTH",
"640 1236 OFFCURVE",
"812 1408 OFFCURVE",
"1024 1408 CURVE SMOOTH",
"1163 1408 OFFCURVE",
"1284 1334 OFFCURVE",
"1351 1223 CURVE",
"1274 1146 OFFCURVE",
"1210 1082 OFFCURVE",
"1190 1062 CURVE SMOOTH",
"1120 992 OFFCURVE",
"1189 896 OFFCURVE",
"1280 896 CURVE SMOOTH",
"1384 896 LINE",
"1780 896 LINE",
"1792 896 LINE SMOOTH",
"1863 896 OFFCURVE",
"1920 953 OFFCURVE",
"1920 1024 CURVE SMOOTH",
"1920 1536 LINE SMOOTH",
"1920 1640 OFFCURVE",
"1819 1691 OFFCURVE",
"1754 1626 CURVE SMOOTH"
);
}
);
width = 2048;
}
);
unicode = 0075;
},
{
glyphname = v;
lastChange = "2013-09-25 20:10:30 -0500";
layers = (
{
layerId = "D2F4DDDF-B441-4F85-9E4F-6DBCE838F50A";
name = Regular;
paths = (
{
closed = 1;
nodes = (
"1745 1689 OFFCURVE",
"1583 1689 OFFCURVE",
"1483 1589 CURVE SMOOTH",
"791 854 LINE",
"525 1120 LINE SMOOTH",
"425 1220 OFFCURVE",
"263 1220 OFFCURVE",
"163 1120 CURVE SMOOTH",
"63 1020 OFFCURVE",
"63 858 OFFCURVE",
"163 758 CURVE SMOOTH",
"615 306 LINE SMOOTH",
"715 206 OFFCURVE",
"877 206 OFFCURVE",
"977 306 CURVE SMOOTH",
"1845 1227 LINE SMOOTH",
"1945 1327 OFFCURVE",
"1945 1489 OFFCURVE",
"1845 1589 CURVE SMOOTH"
);
}
);
width = 2048;
}
);
unicode = 0076;
},
{
glyphname = w;
lastChange = "2013-09-25 20:08:54 -0500";
layers = (
{
layerId = "D2F4DDDF-B441-4F85-9E4F-6DBCE838F50A";
name = Regular;
paths = (
{
closed = 1;
nodes = (
"1607 1280 LINE",
"1598 1301 OFFCURVE",
"1590 1323 OFFCURVE",
"1578 1344 CURVE SMOOTH",
"1566 1365 OFFCURVE",
"1551 1382 OFFCURVE",
"1537 1401 CURVE",
"1630 1561 LINE SMOOTH",
"1700 1684 OFFCURVE",
"1658 1840 OFFCURVE",
"1536 1911 CURVE SMOOTH",
"1414 1982 OFFCURVE",
"1257 1940 OFFCURVE",
"1186 1817 CURVE SMOOTH",
"1095 1658 LINE",
"1048 1663 OFFCURVE",
"1000 1665 OFFCURVE",
"953 1659 CURVE",
"862 1817 LINE SMOOTH",
"791 1940 OFFCURVE",
"634 1981 OFFCURVE",
"512 1911 CURVE SMOOTH",
"390 1840 OFFCURVE",
"348 1684 OFFCURVE",
"418 1561 CURVE SMOOTH",
"509 1403 LINE",
"481 1365 OFFCURVE",
"458 1323 OFFCURVE",
"440 1280 CURVE",
"256 1280 LINE SMOOTH",
"115 1280 OFFCURVE",
"0 1165 OFFCURVE",
"0 1024 CURVE SMOOTH",
"0 883 OFFCURVE",
"115 768 OFFCURVE",
"256 768 CURVE SMOOTH",
"441 768 LINE",
"450 747 OFFCURVE",
"458 725 OFFCURVE",
"470 704 CURVE SMOOTH",
"482 683 OFFCURVE",
"497 666 OFFCURVE",
"511 647 CURVE",
"418 487 LINE SMOOTH",
"348 364 OFFCURVE",
"390 208 OFFCURVE",
"512 137 CURVE SMOOTH",
"634 67 OFFCURVE",
"791 108 OFFCURVE",
"862 231 CURVE SMOOTH",
"953 390 LINE",
"1000 385 OFFCURVE",
"1048 383 OFFCURVE",
"1095 389 CURVE",
"1186 231 LINE SMOOTH",
"1257 108 OFFCURVE",
"1414 66 OFFCURVE",
"1536 137 CURVE SMOOTH",
"1658 208 OFFCURVE",
"1700 364 OFFCURVE",
"1630 487 CURVE SMOOTH",
"1539 645 LINE",
"1567 683 OFFCURVE",
"1590 725 OFFCURVE",
"1608 768 CURVE",
"1792 768 LINE SMOOTH",
"1933 768 OFFCURVE",
"2048 883 OFFCURVE",
"2048 1024 CURVE",
"2048 1165 OFFCURVE",
"1933 1280 OFFCURVE",
"1792 1280 CURVE SMOOTH"
);
},
{
closed = 1;
nodes = (
"1030 732 OFFCURVE",
"873 774 OFFCURVE",
"802 896 CURVE SMOOTH",
"732 1018 OFFCURVE",
"774 1175 OFFCURVE",
"896 1246 CURVE SMOOTH",
"1018 1316 OFFCURVE",
"1175 1274 OFFCURVE",
"1246 1152 CURVE SMOOTH",
"1316 1030 OFFCURVE",
"1274 873 OFFCURVE",
"1152 802 CURVE SMOOTH"
);
}
);
width = 2048;
}
);
unicode = 0077;
},
{
glyphname = x;
lastChange = "2013-09-25 20:12:02 -0500";
layers = (
{
layerId = "D2F4DDDF-B441-4F85-9E4F-6DBCE838F50A";
name = Regular;
paths = (
{
closed = 1;
nodes = (
"295 1381 OFFCURVE",
"290 1546 OFFCURVE",
"391 1647 CURVE",
"491 1747 OFFCURVE",
"654 1747 OFFCURVE",
"753 1647 CURVE SMOOTH",
"1646 754 LINE SMOOTH",
"1743 658 OFFCURVE",
"1747 493 OFFCURVE",
"1646 392 CURVE",
"1547 292 OFFCURVE",
"1384 292 OFFCURVE",
"1284 392 CURVE SMOOTH",
"391 1285 LINE SMOOTH"
);
},
{
closed = 1;
nodes = (
"1396 1758 OFFCURVE",
"1561 1763 OFFCURVE",
"1662 1662 CURVE",
"1762 1562 OFFCURVE",
"1762 1399 OFFCURVE",
"1662 1300 CURVE SMOOTH",
"748 386 LINE SMOOTH",
"652 290 OFFCURVE",
"487 285 OFFCURVE",
"386 386 CURVE",
"287 486 OFFCURVE",
"287 648 OFFCURVE",
"386 748 CURVE SMOOTH",
"1300 1662 LINE SMOOTH"
);
}
);
width = 2048;
}
);
unicode = 0078;
},
{
glyphname = y;
lastChange = "2013-09-25 20:15:07 -0500";
layers = (
{
layerId = "D2F4DDDF-B441-4F85-9E4F-6DBCE838F50A";
name = Regular;
paths = (
{
closed = 1;
nodes = (
"1920 1494 OFFCURVE",
"1834 1408 OFFCURVE",
"1728 1408 CURVE SMOOTH",
"320 1408 LINE SMOOTH",
"218 1408 OFFCURVE",
"128 1492 OFFCURVE",
"128 1600 CURVE",
"128 1706 OFFCURVE",
"214 1792 OFFCURVE",
"320 1792 CURVE SMOOTH",
"1728 1792 LINE SMOOTH",
"1834 1792 OFFCURVE",
"1920 1706 OFFCURVE",
"1920 1600 CURVE SMOOTH"
);
},
{
closed = 1;
nodes = (
"1920 854 OFFCURVE",
"1834 768 OFFCURVE",
"1728 768 CURVE SMOOTH",
"320 768 LINE SMOOTH",
"218 768 OFFCURVE",
"128 852 OFFCURVE",
"128 960 CURVE",
"128 1066 OFFCURVE",
"214 1152 OFFCURVE",
"320 1152 CURVE SMOOTH",
"1728 1152 LINE SMOOTH",
"1834 1152 OFFCURVE",
"1920 1066 OFFCURVE",
"1920 960 CURVE SMOOTH"
);
},
{
closed = 1;
nodes = (
"1920 214 OFFCURVE",
"1834 128 OFFCURVE",
"1728 128 CURVE SMOOTH",
"320 128 LINE SMOOTH",
"218 128 OFFCURVE",
"128 212 OFFCURVE",
"128 320 CURVE",
"128 426 OFFCURVE",
"214 512 OFFCURVE",
"320 512 CURVE SMOOTH",
"1728 512 LINE SMOOTH",
"1834 512 OFFCURVE",
"1920 426 OFFCURVE",
"1920 320 CURVE SMOOTH"
);
}
);
width = 2048;
}
);
unicode = 0079;
},
{
glyphname = z;
lastChange = "2013-09-25 20:20:15 -0500";
layers = (
{
layerId = "D2F4DDDF-B441-4F85-9E4F-6DBCE838F50A";
name = Regular;
paths = (
{
closed = 1;
nodes = (
"1598 2110 OFFCURVE",
"1193 2110 OFFCURVE",
"943 1861 CURVE SMOOTH",
"38 955 LINE SMOOTH",
"-12 905 OFFCURVE",
"-12 824 OFFCURVE",
"38 774 CURVE SMOOTH",
"88 724 OFFCURVE",
"169 724 OFFCURVE",
"219 774 CURVE SMOOTH",
"1124 1680 LINE SMOOTH",
"1274 1829 OFFCURVE",
"1517 1829 OFFCURVE",
"1667 1680 CURVE SMOOTH",
"1817 1530 OFFCURVE",
"1817 1286 OFFCURVE",
"1667 1136 CURVE SMOOTH",
"1470 939 LINE",
"943 412 LINE SMOOTH",
"893 362 OFFCURVE",
"812 362 OFFCURVE",
"762 412 CURVE SMOOTH",
"712 462 OFFCURVE",
"712 543 OFFCURVE",
"762 593 CURVE SMOOTH",
"1288 1120 LINE",
"1486 1317 LINE SMOOTH",
"1536 1367 OFFCURVE",
"1536 1449 OFFCURVE",
"1486 1499 CURVE SMOOTH",
"1436 1548 OFFCURVE",
"1355 1548 OFFCURVE",
"1305 1499 CURVE SMOOTH",
"581 774 LINE SMOOTH",
"431 624 OFFCURVE",
"431 381 OFFCURVE",
"581 231 CURVE SMOOTH",
"608 204 OFFCURVE",
"639 184 OFFCURVE",
"672 166 CURVE SMOOTH",
"817 88 OFFCURVE",
"1001 109 OFFCURVE",
"1124 231 CURVE SMOOTH",
"1848 955 LINE SMOOTH",
"2098 1205 OFFCURVE",
"2098 1611 OFFCURVE",
"1848 1861 CURVE SMOOTH"
);
}
);
width = 2048;
}
);
unicode = 007A;
},
{
glyphname = v.001;
lastChange = "2013-09-25 20:09:03 -0500";
layers = (
{
layerId = "D2F4DDDF-B441-4F85-9E4F-6DBCE838F50A";
name = Regular;
paths = (
{
closed = 1;
nodes = (
"1997 919 OFFCURVE",
"1912 835 OFFCURVE",
"1807 835 CURVE SMOOTH",
"1632 835 LINE",
"1621 797 OFFCURVE",
"1606 762 OFFCURVE",
"1588 728 CURVE",
"1712 604 LINE SMOOTH",
"1786 530 OFFCURVE",
"1786 410 OFFCURVE",
"1712 336 CURVE SMOOTH",
"1638 262 OFFCURVE",
"1518 262 OFFCURVE",
"1444 336 CURVE SMOOTH",
"1320 460 LINE",
"1286 442 OFFCURVE",
"1251 427 OFFCURVE",
"1213 416 CURVE",
"1213 241 LINE SMOOTH",
"1213 136 OFFCURVE",
"1129 51 OFFCURVE",
"1024 51 CURVE SMOOTH",
"919 51 OFFCURVE",
"835 136 OFFCURVE",
"835 241 CURVE SMOOTH",
"835 416 LINE",
"797 427 OFFCURVE",
"762 442 OFFCURVE",
"728 460 CURVE",
"604 336 LINE SMOOTH",
"530 262 OFFCURVE",
"410 262 OFFCURVE",
"336 336 CURVE SMOOTH",
"262 410 OFFCURVE",
"262 530 OFFCURVE",
"336 604 CURVE SMOOTH",
"460 728 LINE",
"442 762 OFFCURVE",
"427 797 OFFCURVE",
"416 835 CURVE",
"241 835 LINE SMOOTH",
"136 835 OFFCURVE",
"51 919 OFFCURVE",
"51 1024 CURVE SMOOTH",
"51 1129 OFFCURVE",
"136 1213 OFFCURVE",
"241 1213 CURVE SMOOTH",
"416 1213 LINE",
"427 1251 OFFCURVE",
"442 1286 OFFCURVE",
"460 1320 CURVE",
"336 1444 LINE SMOOTH",
"262 1518 OFFCURVE",
"262 1638 OFFCURVE",
"336 1712 CURVE SMOOTH",
"410 1786 OFFCURVE",
"530 1786 OFFCURVE",
"604 1712 CURVE SMOOTH",
"728 1588 LINE",
"762 1606 OFFCURVE",
"797 1621 OFFCURVE",
"835 1632 CURVE",
"835 1807 LINE SMOOTH",
"835 1912 OFFCURVE",
"919 1997 OFFCURVE",
"1024 1997 CURVE SMOOTH",
"1129 1997 OFFCURVE",
"1213 1912 OFFCURVE",
"1213 1807 CURVE SMOOTH",
"1213 1632 LINE",
"1251 1621 OFFCURVE",
"1286 1606 OFFCURVE",
"1320 1588 CURVE",
"1444 1712 LINE SMOOTH",
"1518 1786 OFFCURVE",
"1638 1786 OFFCURVE",
"1712 1712 CURVE SMOOTH",
"1786 1638 OFFCURVE",
"1786 1518 OFFCURVE",
"1712 1444 CURVE SMOOTH",
"1588 1320 LINE",
"1606 1286 OFFCURVE",
"1621 1251 OFFCURVE",
"1632 1213 CURVE",
"1807 1213 LINE SMOOTH",
"1912 1213 OFFCURVE",
"1997 1129 OFFCURVE",
"1997 1024 CURVE SMOOTH"
);
},
{
closed = 1;
nodes = (
"883 1280 OFFCURVE",
"768 1165 OFFCURVE",
"768 1024 CURVE SMOOTH",
"768 883 OFFCURVE",
"883 768 OFFCURVE",
"1024 768 CURVE SMOOTH",
"1165 768 OFFCURVE",
"1280 883 OFFCURVE",
"1280 1024 CURVE SMOOTH",
"1280 1165 OFFCURVE",
"1165 1280 OFFCURVE",
"1024 1280 CURVE SMOOTH"
);
}
);
width = 2048;
}
);
},
{
glyphname = uniF112;
lastChange = "2013-09-23 19:42:16 -0500";
layers = (
{
layerId = "D2F4DDDF-B441-4F85-9E4F-6DBCE838F50A";
name = Regular;
paths = (
{
closed = 1;
nodes = (
"1344 271.269 OFFCURVE",
"1200.73 128 OFFCURVE",
"1024 128 CURVE SMOOTH",
"1024 128 LINE SMOOTH",
"847.269 128 OFFCURVE",
"704 271.269 OFFCURVE",
"704 448 CURVE SMOOTH",
"704 1600 LINE SMOOTH",
"704 1776.73 OFFCURVE",
"847.269 1920 OFFCURVE",
"1024 1920 CURVE",
"1024 1920 LINE",
"1200.73 1920 OFFCURVE",
"1344 1776.73 OFFCURVE",
"1344 1600 CURVE SMOOTH",
"1344 448 LINE SMOOTH"
);
},
{
closed = 1;
nodes = (
"256 768 OFFCURVE",
"128 896 OFFCURVE",
"128 1024 CURVE",
"128 1200.73 OFFCURVE",
"271.269 1344 OFFCURVE",
"448 1344 CURVE SMOOTH",
"1600 1344 LINE SMOOTH",
"1792 1408 OFFCURVE",
"1920 1152 OFFCURVE",
"1920 1024 CURVE",
"1920 847.269 OFFCURVE",
"1776.73 704 OFFCURVE",
"1600 704 CURVE SMOOTH",
"448 704 LINE SMOOTH"
);
}
);
width = 2048;
}
);
unicode = F112;
},
{
glyphname = unif108.001;
lastChange = "2013-09-23 23:49:21 -0500";
layers = (
{
layerId = "D2F4DDDF-B441-4F85-9E4F-6DBCE838F50A";
name = Regular;
paths = (
{
closed = 1;
nodes = (
"1504 376 OFFCURVE",
"2118 1023 OFFCURVE",
"1862 1540 CURVE SMOOTH",
"1689 1889 OFFCURVE",
"1256 1814 OFFCURVE",
"1024 1664 CURVE",
"793 1814 OFFCURVE",
"360 1889 OFFCURVE",
"187 1540 CURVE SMOOTH",
"-70 1023 OFFCURVE",
"545 376 OFFCURVE",
"1024 256 CURVE"
);
}
);
width = 2048;
}
);
},
{
glyphname = unif106.001;
lastChange = "2013-09-23 23:36:10 -0500";
layers = (
{
layerId = "D2F4DDDF-B441-4F85-9E4F-6DBCE838F50A";
name = Regular;
paths = (
{
closed = 1;
nodes = (
"1600 290 OFFCURVE",
"1510 200 OFFCURVE",
"1400 200 CURVE SMOOTH",
"300 200 LINE SMOOTH",
"190 200 OFFCURVE",
"100 290 OFFCURVE",
"100 400 CURVE SMOOTH",
"100 1000 LINE SMOOTH",
"100 1110 OFFCURVE",
"190 1200 OFFCURVE",
"300 1200 CURVE SMOOTH",
"1400 1200 LINE SMOOTH",
"1510 1200 OFFCURVE",
"1600 1110 OFFCURVE",
"1600 1000 CURVE SMOOTH",
"1600 400 LINE SMOOTH"
);
},
{
closed = 1;
nodes = (
"684 1030 OFFCURVE",
"550 896 OFFCURVE",
"550 730 CURVE SMOOTH",
"550 564 OFFCURVE",
"684 430 OFFCURVE",
"850 430 CURVE SMOOTH",
"1016 430 OFFCURVE",
"1150 564 OFFCURVE",
"1150 730 CURVE SMOOTH",
"1150 896 OFFCURVE",
"1016 1030 OFFCURVE",
"850 1030 CURVE SMOOTH"
);
},
{
closed = 1;
nodes = (
"498 1252 LINE SMOOTH",
"537 1337 OFFCURVE",
"640 1400 OFFCURVE",
"750 1400 CURVE",
"950 1400 LINE",
"1060 1400 OFFCURVE",
"1171 1340 OFFCURVE",
"1202 1252 CURVE SMOOTH",
"1235 1157 LINE",
"465 1157 LINE"
);
}
);
width = 2048;
}
);
},
{
glyphname = unif105.001;
lastChange = "2013-09-23 23:36:10 -0500";
layers = (
{
layerId = "D2F4DDDF-B441-4F85-9E4F-6DBCE838F50A";
name = Regular;
paths = (
{
closed = 1;
nodes = (
"1000 294 OFFCURVE",
"912 200 OFFCURVE",
"800 200 CURVE SMOOTH",
"690 200 OFFCURVE",
"600 290 OFFCURVE",
"600 400 CURVE SMOOTH",
"600 1200 LINE SMOOTH",
"600 1306 OFFCURVE",
"688 1400 OFFCURVE",
"800 1400 CURVE",
"910 1400 OFFCURVE",
"1000 1310 OFFCURVE",
"1000 1200 CURVE SMOOTH",
"1000 400 LINE SMOOTH"
);
},
{
closed = 1;
nodes = (
"294 600 OFFCURVE",
"200 688 OFFCURVE",
"200 800 CURVE",
"200 910 OFFCURVE",
"290 1000 OFFCURVE",
"400 1000 CURVE SMOOTH",
"1200 1000 LINE SMOOTH",
"1306 1000 OFFCURVE",
"1400 912 OFFCURVE",
"1400 800 CURVE",
"1400 690 OFFCURVE",
"1310 600 OFFCURVE",
"1200 600 CURVE SMOOTH",
"400 600 LINE SMOOTH"
);
}
);
width = 2048;
}
);
},
{
glyphname = unif104.001;
lastChange = "2013-09-23 23:36:10 -0500";
layers = (
{
layerId = "D2F4DDDF-B441-4F85-9E4F-6DBCE838F50A";
name = Regular;
paths = (
{
closed = 1;
nodes = (
"1400 90 OFFCURVE",
"1300 0 OFFCURVE",
"1200 0 CURVE SMOOTH",
"987 0 OFFCURVE",
"800 250 OFFCURVE",
"800 250 CURVE SMOOTH",
"800 250 OFFCURVE",
"625 0 OFFCURVE",
"400 0 CURVE SMOOTH",
"300 0 OFFCURVE",
"200 90 OFFCURVE",
"200 200 CURVE SMOOTH",
"200 1300 LINE SMOOTH",
"200 1410 OFFCURVE",
"289 1500 OFFCURVE",
"400 1500 CURVE SMOOTH",
"1200 1500 LINE SMOOTH",
"1310 1500 OFFCURVE",
"1400 1410 OFFCURVE",
"1400 1300 CURVE SMOOTH",
"1400 200 LINE SMOOTH"
);
}
);
width = 2048;
}
);
},
{
glyphname = unif103.001;
lastChange = "2013-09-23 23:36:10 -0500";
layers = (
{
layerId = "D2F4DDDF-B441-4F85-9E4F-6DBCE838F50A";
name = Regular;
paths = (
{
closed = 1;
nodes = (
"1600 319 OFFCURVE",
"1481 200 OFFCURVE",
"1333 200 CURVE SMOOTH",
"267 200 LINE SMOOTH",
"119 200 OFFCURVE",
"0 319 OFFCURVE",
"0 467 CURVE SMOOTH",
"0 1100 LINE SMOOTH",
"0 1248 OFFCURVE",
"119 1367 OFFCURVE",
"267 1367 CURVE SMOOTH",
"1333 1367 LINE SMOOTH",
"1481 1367 OFFCURVE",
"1600 1248 OFFCURVE",
"1600 1100 CURVE SMOOTH",
"1600 467 LINE SMOOTH"
);
},
{
closed = 1;
nodes = (
"1397 997 LINE SMOOTH",
"1447 1030 OFFCURVE",
"1460 1100 OFFCURVE",
"1425 1150 CURVE SMOOTH",
"1391 1203 OFFCURVE",
"1322 1215 OFFCURVE",
"1273 1182 CURVE SMOOTH",
"800 867 LINE",
"327 1182 LINE SMOOTH",
"278 1215 OFFCURVE",
"209 1203 OFFCURVE",
"175 1150 CURVE SMOOTH",
"140 1100 OFFCURVE",
"153 1030 OFFCURVE",
"206 997 CURVE SMOOTH",
"739 640 LINE SMOOTH",
"756 628 OFFCURVE",
"778 623 OFFCURVE",
"800 623 CURVE SMOOTH",
"822 623 OFFCURVE",
"844 628 OFFCURVE",
"861 640 CURVE SMOOTH"
);
}
);
width = 2048;
}
);
},
{
glyphname = unif102.001;
lastChange = "2013-09-23 23:36:10 -0500";
layers = (
{
layerId = "D2F4DDDF-B441-4F85-9E4F-6DBCE838F50A";
name = Regular;
paths = (
{
closed = 1;
nodes = (
"333 1529 OFFCURVE",
"50 1349 OFFCURVE",
"50 935 CURVE SMOOTH",
"50 521 OFFCURVE",
"333 362 OFFCURVE",
"800 362 CURVE SMOOTH",
"1266 362 OFFCURVE",
"1550 521 OFFCURVE",
"1550 935 CURVE SMOOTH",
"1550 1349 OFFCURVE",
"1266 1529 OFFCURVE",
"800 1529 CURVE SMOOTH"
);
},
{
closed = 1;
nodes = (
"956 1061 OFFCURVE",
"623 643 OFFCURVE",
"623 643 CURVE",
"623 573 OFFCURVE",
"631 462 OFFCURVE",
"597 404 CURVE",
"597 201 OFFCURVE",
"399 217 OFFCURVE",
"456 144 CURVE SMOOTH",
"513 71 OFFCURVE",
"787 89 OFFCURVE",
"906 189 CURVE SMOOTH",
"1017 283 OFFCURVE",
"1079 442 OFFCURVE",
"1039 643 CURVE SMOOTH"
);
}
);
width = 2048;
}
);
},
{
glyphname = unif101.001;
lastChange = "2013-09-23 23:36:10 -0500";
layers = (
{
layerId = "D2F4DDDF-B441-4F85-9E4F-6DBCE838F50A";
name = Regular;
paths = (
{
closed = 1;
nodes = (
"260 182 OFFCURVE",
"-129 762 OFFCURVE",
"40 1129 CURVE SMOOTH",
"165 1402 OFFCURVE",
"475 1503 OFFCURVE",
"800 1283 CURVE",
"1124 1503 OFFCURVE",
"1434 1402 OFFCURVE",
"1560 1129 CURVE SMOOTH",
"1729 762 OFFCURVE",
"1340 182 OFFCURVE",
"800 97 CURVE"
);
}
);
width = 2048;
}
);
},
{
glyphname = unif100.001;
lastChange = "2013-09-23 23:36:10 -0500";
layers = (
{
layerId = "D2F4DDDF-B441-4F85-9E4F-6DBCE838F50A";
name = Regular;
paths = (
{
closed = 1;
nodes = (
"1456 559 OFFCURVE",
"1404 500 OFFCURVE",
"1293 500 CURVE SMOOTH",
"595 500 LINE SMOOTH",
"485 500 OFFCURVE",
"420 586 OFFCURVE",
"395 700 CURVE SMOOTH",
"295 1100 LINE",
"295 1210 OFFCURVE",
"385 1300 OFFCURVE",
"495 1300 CURVE SMOOTH",
"1393 1300 LINE SMOOTH",
"1546 1300 OFFCURVE",
"1618 1208 OFFCURVE",
"1593 1100 CURVE SMOOTH",
"1493 700 LINE SMOOTH"
);
},
{
closed = 1;
nodes = (
"649 926 OFFCURVE",
"606 843 OFFCURVE",
"521 821 CURVE",
"441 801 OFFCURVE",
"359 849 OFFCURVE",
"339 930 CURVE SMOOTH",
"240 1317 LINE SMOOTH",
"220 1396 OFFCURVE",
"264 1478 OFFCURVE",
"348 1500 CURVE",
"400 1500 OFFCURVE",
"500 1504 OFFCURVE",
"531 1391 CURVE SMOOTH",
"629 1004 LINE SMOOTH"
);
},
{
closed = 1;
nodes = (
"500 1267 OFFCURVE",
"433 1200 OFFCURVE",
"350 1200 CURVE SMOOTH",
"150 1200 LINE SMOOTH",
"71 1200 OFFCURVE",
"0 1265 OFFCURVE",
"0 1350 CURVE",
"0 1433 OFFCURVE",
"67 1500 OFFCURVE",
"150 1500 CURVE SMOOTH",
"350 1500 LINE SMOOTH",
"433 1500 OFFCURVE",
"500 1433 OFFCURVE",
"500 1350 CURVE SMOOTH"
);
},
{
closed = 1;
nodes = (
"847 178 OFFCURVE",
"769 100 OFFCURVE",
"673 100 CURVE SMOOTH",
"578 100 OFFCURVE",
"500 178 OFFCURVE",
"500 273 CURVE SMOOTH",
"500 369 OFFCURVE",
"578 447 OFFCURVE",
"673 447 CURVE SMOOTH",
"769 447 OFFCURVE",
"847 369 OFFCURVE",
"847 273 CURVE SMOOTH"
);
},
{
closed = 1;
nodes = (
"1400 178 OFFCURVE",
"1322 100 OFFCURVE",
"1227 100 CURVE SMOOTH",
"1131 100 OFFCURVE",
"1053 178 OFFCURVE",
"1053 273 CURVE SMOOTH",
"1053 369 OFFCURVE",
"1131 447 OFFCURVE",
"1227 447 CURVE SMOOTH",
"1322 447 OFFCURVE",
"1400 369 OFFCURVE",
"1400 273 CURVE SMOOTH"
);
}
);
width = 2048;
}
);
},
